<svg version="1.1" preserveAspectRatio="none" xmlns="http://www.w3.org/2000/svg" width="500" height="500" viewBox="0 0 500 500"><svg viewBox="298 169.311 380 110.8781" width="417" height="121.67412552631579" x="41.5px" y="189.1629px" xmlns="http://www.w3.org/2000/svg" xmlns:xlink="http://www.w3.org/1999/xlink" preserveAspectRatio="none"><defs></defs><style>.aIptOCySncolors-3dbb43f5b-dbc5-4715-af46-f94627b6e9da {fill:#3CB9EF;fill-opacity:1;}.aIptOCySncolors-4dbb43f5b-dbc5-4715-af46-f94627b6e9da {fill:#83EDFF;fill-opacity:1;}.aIptOCySncolors-5dbb43f5b-dbc5-4715-af46-f94627b6e9da {fill:#AEDDFF;fill-opacity:1;}.aIptOCySncolors-6dbb43f5b-dbc5-4715-af46-f94627b6e9da {fill:#FFF1FF;fill-opacity:1;}.aIptOCySncolors-7dbb43f5b-dbc5-4715-af46-f94627b6e9da {fill:#FFE4CE;fill-opacity:1;}.backgrounddbb43f5b-dbc5-4715-af46-f94627b6e9da {fill:#FFFFFF;fill-opacity:1;}.companyNamedbb43f5b-dbc5-4715-af46-f94627b6e9da {fill:#42A5FF;fill-opacity:1;}.icon3-strdbb43f5b-dbc5-4715-af46-f94627b6e9da {stroke:#FFD4D4;stroke-opacity:1;}.icon3dbb43f5b-dbc5-4715-af46-f94627b6e9da {fill:#FFD4D4;fill-opacity:1;}.shapedbb43f5b-dbc5-4715-af46-f94627b6e9da {fill:#FBF3EE;fill-opacity:1;}.text-strdbb43f5b-dbc5-4715-af46-f94627b6e9da {stroke:#42A5FF;stroke-opacity:1;}.textdbb43f5b-dbc5-4715-af46-f94627b6e9da {fill:#42A5FF;fill-opacity:1;}</style><g opacity="1" transform="rotate(0 383.8369 169.311)">
<svg width="294.1631" height="83.9008" x="383.8369" y="169.311" version="1.1" preserveAspectRatio="none" viewBox="0 0 294.1631 83.9008">
  <defs><rect x="0" y="0" width="294.1631" height="83.9008" rx="0px" ry="0px" id="id-dbb43f5b-dbc5-4715-af46-f94627b6e9daB7crM0kCi1762243267027"></rect></defs><use class="companyNamedbb43f5b-dbc5-4715-af46-f94627b6e9da text-strdbb43f5b-dbc5-4715-af46-f94627b6e9da" style="stroke-width:0;" xlink:href="#id-dbb43f5b-dbc5-4715-af46-f94627b6e9daB7crM0kCi1762243267027"></use>
</svg>
</g><g opacity="1" transform="rotate(0 367.095 264.8288)">
<svg width="241.81" height="15.3603" x="367.095" y="264.8288" version="1.1" preserveAspectRatio="none" viewBox="0.16 -30.28 480.44 30.520000000000003">
  <g transform="matrix(1 0 0 1 0 0)" class="textdbb43f5b-dbc5-4715-af46-f94627b6e9da"><path id="id-dbb43f5b-dbc5-4715-af46-f94627b6e9da6izo4zJp21" d="M9.76 0L9.76-24.52L0.16-24.52L0.16-28L23.32-28L23.32-24.52L13.72-24.52L13.72 0L9.76 0Z M40.44-21.40Q44.48-21.40 46.86-19.06Q49.24-16.72 49.24-12.20L49.24-12.20L49.24 0L45.40 0L45.40-11.76Q45.40-14.84 43.92-16.40Q42.44-17.96 39.68-17.96L39.68-17.96Q36.56-17.96 34.76-16.14Q32.96-14.32 32.96-10.92L32.96-10.92L32.96 0L29.12 0L29.12-29.68L32.96-29.68L32.96-18.20Q34.16-19.72 36.10-20.56Q38.04-21.40 40.44-21.40L40.44-21.40Z M77.64-10.48Q77.64-10.04 77.56-9.32L77.56-9.32L60.36-9.32Q60.72-6.52 62.82-4.82Q64.92-3.12 68.04-3.12L68.04-3.12Q71.84-3.12 74.16-5.68L74.16-5.68L76.28-3.20Q74.84-1.52 72.70-0.64Q70.56 0.24 67.92 0.24L67.92 0.24Q64.56 0.24 61.96-1.14Q59.36-2.52 57.94-5Q56.52-7.48 56.52-10.60L56.52-10.60Q56.52-13.68 57.90-16.16Q59.28-18.64 61.70-20.02Q64.12-21.40 67.16-21.40L67.16-21.40Q70.20-21.40 72.58-20.02Q74.96-18.64 76.30-16.16Q77.64-13.68 77.64-10.48L77.64-10.48ZM67.16-18.16Q64.40-18.16 62.54-16.48Q60.68-14.80 60.36-12.08L60.36-12.08L73.96-12.08Q73.64-14.76 71.78-16.46Q69.92-18.16 67.16-18.16L67.16-18.16Z M105.44-21.40Q109.84-21.40 112.18-19.24Q114.52-17.08 114.52-12.80L114.52-12.80L114.52 0L110.88 0L110.88-2.80Q109.92-1.32 108.14-0.54Q106.36 0.24 103.92 0.24L103.92 0.24Q100.36 0.24 98.22-1.48Q96.08-3.20 96.08-6L96.08-6Q96.08-8.80 98.12-10.50Q100.16-12.20 104.60-12.20L104.60-12.20L110.68-12.20L110.68-12.96Q110.68-15.44 109.24-16.76Q107.80-18.08 105-18.08L105-18.08Q103.12-18.08 101.32-17.46Q99.52-16.84 98.28-15.80L98.28-15.80L96.68-18.68Q98.32-20 100.60-20.70Q102.88-21.40 105.44-21.40L105.44-21.40ZM104.56-2.72Q106.76-2.72 108.36-3.70Q109.96-4.68 110.68-6.48L110.68-6.48L110.68-9.44L104.76-9.44Q99.88-9.44 99.88-6.16L99.88-6.16Q99.88-4.56 101.12-3.64Q102.36-2.72 104.56-2.72L104.56-2.72Z M139.56-21.20L143.40-21.20L143.40 0L139.76 0L139.76-3.20Q138.60-1.56 136.70-0.66Q134.80 0.24 132.56 0.24L132.56 0.24Q128.32 0.24 125.88-2.10Q123.44-4.44 123.44-9L123.44-9L123.44-21.20L127.28-21.20L127.28-9.44Q127.28-6.36 128.76-4.78Q130.24-3.20 133-3.20L133-3.20Q136.04-3.20 137.80-5.04Q139.56-6.88 139.56-10.24L139.56-10.24L139.56-21.20Z M156.40-17.64Q157.40-19.48 159.36-20.44Q161.32-21.40 164.12-21.40L164.12-21.40L164.12-17.68Q163.80-17.72 163.24-17.72L163.24-17.72Q160.12-17.72 158.34-15.86Q156.56-14 156.56-10.56L156.56-10.56L156.56 0L152.72 0L152.72-21.20L156.40-21.20L156.40-17.64Z M178.52-21.40Q182.92-21.40 185.26-19.24Q187.60-17.08 187.60-12.80L187.60-12.80L187.60 0L183.96 0L183.96-2.80Q183.00-1.32 181.22-0.54Q179.44 0.24 177.00 0.24L177.00 0.24Q173.44 0.24 171.30-1.48Q169.16-3.20 169.16-6L169.16-6Q169.16-8.80 171.20-10.50Q173.24-12.20 177.68-12.20L177.68-12.20L183.76-12.20L183.76-12.96Q183.76-15.44 182.32-16.76Q180.88-18.08 178.08-18.08L178.08-18.08Q176.20-18.08 174.40-17.46Q172.60-16.84 171.36-15.80L171.36-15.80L169.76-18.68Q171.40-20 173.68-20.70Q175.96-21.40 178.52-21.40L178.52-21.40ZM177.64-2.72Q179.84-2.72 181.44-3.70Q183.04-4.68 183.76-6.48L183.76-6.48L183.76-9.44L177.84-9.44Q172.96-9.44 172.96-6.16L172.96-6.16Q172.96-4.56 174.20-3.64Q175.44-2.72 177.64-2.72L177.64-2.72Z M218.56 0.24Q215.40 0.24 212.88-1.16Q210.36-2.56 208.94-5.02Q207.52-7.48 207.52-10.60L207.52-10.60Q207.52-13.72 208.94-16.18Q210.36-18.64 212.88-20.02Q215.40-21.40 218.56-21.40L218.56-21.40Q221.72-21.40 224.22-20.02Q226.72-18.64 228.14-16.18Q229.56-13.72 229.56-10.60L229.56-10.60Q229.56-7.48 228.14-5.02Q226.72-2.56 224.22-1.16Q221.72 0.24 218.56 0.24L218.56 0.24ZM218.56-3.12Q220.60-3.12 222.22-4.06Q223.84-5 224.76-6.70Q225.68-8.40 225.68-10.60L225.68-10.60Q225.68-12.80 224.76-14.50Q223.84-16.20 222.22-17.12Q220.60-18.04 218.56-18.04L218.56-18.04Q216.52-18.04 214.90-17.12Q213.28-16.20 212.34-14.50Q211.40-12.80 211.40-10.60L211.40-10.60Q211.40-8.40 212.34-6.70Q213.28-5 214.90-4.06Q216.52-3.12 218.56-3.12L218.56-3.12Z M244.64-26.76Q241.20-26.76 241.20-23.04L241.20-23.04L241.20-21.20L247.36-21.20L247.36-18.04L241.28-18.04L241.28 0L237.44 0L237.44-18.04L233.84-18.04L233.84-21.20L237.44-21.20L237.44-23.08Q237.44-26.24 239.28-28.08Q241.12-29.92 244.44-29.92L244.44-29.92Q245.72-29.92 246.84-29.60Q247.96-29.28 248.76-28.68L248.76-28.68L247.60-25.76Q246.28-26.76 244.64-26.76L244.64-26.76Z M284.92-10.48Q284.92-10.04 284.84-9.32L284.84-9.32L267.64-9.32Q268.00-6.52 270.10-4.82Q272.20-3.12 275.32-3.12L275.32-3.12Q279.12-3.12 281.44-5.68L281.44-5.68L283.56-3.20Q282.12-1.52 279.98-0.64Q277.84 0.24 275.20 0.24L275.20 0.24Q271.84 0.24 269.24-1.14Q266.64-2.52 265.22-5Q263.80-7.48 263.80-10.60L263.80-10.60Q263.80-13.68 265.18-16.16Q266.56-18.64 268.98-20.02Q271.40-21.40 274.44-21.40L274.44-21.40Q277.48-21.40 279.86-20.02Q282.24-18.64 283.58-16.16Q284.92-13.68 284.92-10.48L284.92-10.48ZM274.44-18.16Q271.68-18.16 269.82-16.48Q267.96-14.80 267.64-12.08L267.64-12.08L281.24-12.08Q280.92-14.76 279.06-16.46Q277.20-18.16 274.44-18.16L274.44-18.16Z M308.40-29.68L312.24-29.68L312.24 0L308.56 0L308.56-3.36Q307.28-1.60 305.32-0.68Q303.36 0.24 301.00 0.24L301.00 0.24Q297.92 0.24 295.48-1.12Q293.04-2.48 291.66-4.94Q290.28-7.40 290.28-10.60L290.28-10.60Q290.28-13.80 291.66-16.24Q293.04-18.68 295.48-20.04Q297.92-21.40 301.00-21.40L301.00-21.40Q303.28-21.40 305.20-20.54Q307.12-19.68 308.40-18L308.40-18L308.40-29.68ZM301.32-3.12Q303.32-3.12 304.96-4.06Q306.60-5 307.52-6.70Q308.44-8.40 308.44-10.60L308.44-10.60Q308.44-12.80 307.52-14.50Q306.60-16.20 304.96-17.12Q303.32-18.04 301.32-18.04L301.32-18.04Q299.28-18.04 297.66-17.12Q296.04-16.20 295.10-14.50Q294.16-12.80 294.16-10.60L294.16-10.60Q294.16-8.40 295.10-6.70Q296.04-5 297.66-4.06Q299.28-3.12 301.32-3.12L301.32-3.12Z M337.44-21.20L341.28-21.20L341.28 0L337.64 0L337.64-3.20Q336.48-1.56 334.58-0.66Q332.68 0.24 330.44 0.24L330.44 0.24Q326.20 0.24 323.76-2.10Q321.32-4.44 321.32-9L321.32-9L321.32-21.20L325.16-21.20L325.16-9.44Q325.16-6.36 326.64-4.78Q328.12-3.20 330.88-3.20L330.88-3.20Q333.92-3.20 335.68-5.04Q337.44-6.88 337.44-10.24L337.44-10.24L337.44-21.20Z M359.84 0.24Q356.60 0.24 354.06-1.16Q351.52-2.56 350.08-5.02Q348.64-7.48 348.64-10.60L348.64-10.60Q348.64-13.72 350.08-16.18Q351.52-18.64 354.06-20.02Q356.60-21.40 359.84-21.40L359.84-21.40Q362.72-21.40 364.98-20.24Q367.24-19.08 368.48-16.88L368.48-16.88L365.56-15Q364.56-16.52 363.08-17.28Q361.60-18.04 359.80-18.04L359.80-18.04Q357.72-18.04 356.06-17.12Q354.40-16.20 353.46-14.50Q352.52-12.80 352.52-10.60L352.52-10.60Q352.52-8.36 353.46-6.66Q354.40-4.96 356.06-4.04Q357.72-3.12 359.80-3.12L359.80-3.12Q361.60-3.12 363.08-3.88Q364.56-4.64 365.56-6.16L365.56-6.16L368.48-4.32Q367.24-2.12 364.98-0.94Q362.72 0.24 359.84 0.24L359.84 0.24Z M383.16-21.40Q387.56-21.40 389.90-19.24Q392.24-17.08 392.24-12.80L392.24-12.80L392.24 0L388.60 0L388.60-2.80Q387.64-1.32 385.86-0.54Q384.08 0.24 381.64 0.24L381.64 0.24Q378.08 0.24 375.94-1.48Q373.80-3.20 373.80-6L373.80-6Q373.80-8.80 375.84-10.50Q377.88-12.20 382.32-12.20L382.32-12.20L388.40-12.20L388.40-12.96Q388.40-15.44 386.96-16.76Q385.52-18.08 382.72-18.08L382.72-18.08Q380.84-18.08 379.04-17.46Q377.24-16.84 376.00-15.80L376.00-15.80L374.40-18.68Q376.04-20 378.32-20.70Q380.60-21.40 383.16-21.40L383.16-21.40ZM382.28-2.72Q384.48-2.72 386.08-3.70Q387.68-4.68 388.40-6.48L388.40-6.48L388.40-9.44L382.48-9.44Q377.60-9.44 377.60-6.16L377.60-6.16Q377.60-4.56 378.84-3.64Q380.08-2.72 382.28-2.72L382.28-2.72Z M412.08-4L413.28-1.24Q412.44-0.52 411.20-0.14Q409.96 0.24 408.64 0.24L408.64 0.24Q405.44 0.24 403.68-1.48Q401.92-3.20 401.92-6.40L401.92-6.40L401.92-18.04L398.32-18.04L398.32-21.20L401.92-21.20L401.92-25.84L405.76-25.84L405.76-21.20L411.84-21.20L411.84-18.04L405.76-18.04L405.76-6.56Q405.76-4.84 406.62-3.92Q407.48-3 409.08-3L409.08-3Q410.84-3 412.08-4L412.08-4Z M419.92 0L419.92-21.20L423.76-21.20L423.76 0L419.92 0ZM421.84-25.28Q420.72-25.28 419.98-26Q419.24-26.72 419.24-27.76L419.24-27.76Q419.24-28.80 419.98-29.54Q420.72-30.28 421.84-30.28L421.84-30.28Q422.96-30.28 423.70-29.58Q424.44-28.88 424.44-27.84L424.44-27.84Q424.44-26.76 423.70-26.02Q422.96-25.28 421.84-25.28L421.84-25.28Z M442.16 0.24Q439.00 0.24 436.48-1.16Q433.96-2.56 432.54-5.02Q431.12-7.48 431.12-10.60L431.12-10.60Q431.12-13.72 432.54-16.18Q433.96-18.64 436.48-20.02Q439.00-21.40 442.16-21.40L442.16-21.40Q445.32-21.40 447.82-20.02Q450.32-18.64 451.74-16.18Q453.16-13.72 453.16-10.60L453.16-10.60Q453.16-7.48 451.74-5.02Q450.32-2.56 447.82-1.16Q445.32 0.24 442.16 0.24L442.16 0.24ZM442.16-3.12Q444.20-3.12 445.82-4.06Q447.44-5 448.36-6.70Q449.28-8.40 449.28-10.60L449.28-10.60Q449.28-12.80 448.36-14.50Q447.44-16.20 445.82-17.12Q444.20-18.04 442.16-18.04L442.16-18.04Q440.12-18.04 438.50-17.12Q436.88-16.20 435.94-14.50Q435.00-12.80 435.00-10.60L435.00-10.60Q435.00-8.40 435.94-6.70Q436.88-5 438.50-4.06Q440.12-3.12 442.16-3.12L442.16-3.12Z M471.80-21.40Q475.84-21.40 478.22-19.06Q480.60-16.72 480.60-12.20L480.60-12.20L480.60 0L476.76 0L476.76-11.76Q476.76-14.84 475.28-16.40Q473.80-17.96 471.04-17.96L471.04-17.96Q467.92-17.96 466.12-16.14Q464.32-14.32 464.32-10.92L464.32-10.92L464.32 0L460.48 0L460.48-21.20L464.16-21.20L464.16-18Q465.32-19.64 467.30-20.52Q469.28-21.40 471.80-21.40L471.80-21.40Z"/></g>
</svg>
</g><g opacity="1" transform="rotate(0 400.873 188.2614)">
<svg width="260.0909" height="46" x="400.873" y="188.2614" version="1.1" preserveAspectRatio="none" viewBox="0.4102 -32.4023 185.5273 32.8125">
  <g transform="matrix(1 0 0 1 0 0)" class="backgrounddbb43f5b-dbc5-4715-af46-f94627b6e9da"><path id="id-dbb43f5b-dbc5-4715-af46-f94627b6e9daD6z1nYkh6" d="M0.41 0L14.75-30.53L21.31-30.53L36.07 0L29.57 0L27.13-5.14L9.30-5.14L6.93 0L0.41 0ZM11.66-10.23L24.69-10.23L18.09-24.10L11.66-10.23Z M39.00-11.60L39.00-11.60Q39.00-13.95 39.96-16.08Q40.92-18.22 42.71-19.86Q44.51-21.50 47.12-22.48Q49.73-23.46 53.05-23.46L53.05-23.46Q56.35-23.46 58.99-22.47Q61.64-21.48 63.49-19.77Q65.33-18.05 66.32-15.72Q67.30-13.40 67.30-10.74L67.30-10.74Q67.30-10.41 67.29-10.03Q67.29-9.65 67.25-9.34L67.25-9.34L45.45-9.34Q45.82-8.30 46.65-7.44Q47.48-6.58 48.73-5.96Q49.98-5.33 51.62-4.99Q53.26-4.65 55.25-4.65L55.25-4.65Q57.25-4.65 59.22-5.07Q61.19-5.49 62.99-6.13L62.99-6.13L64.94-1.72Q63.81-1.19 62.65-0.79Q61.48-0.39 60.22-0.13Q58.96 0.14 57.59 0.27Q56.21 0.41 54.69 0.41L54.69 0.41Q50.80 0.41 47.87-0.53Q44.94-1.46 42.97-3.09Q41.00-4.71 40-6.89Q39.00-9.08 39.00-11.60ZM45.45-13.85L61.17-13.85Q60.86-14.80 60.21-15.63Q59.55-16.46 58.57-17.08Q57.60-17.70 56.31-18.05Q55.02-18.40 53.48-18.40L53.48-18.40Q51.84-18.40 50.49-18.03Q49.14-17.66 48.13-17.03Q47.11-16.41 46.44-15.59Q45.76-14.77 45.45-13.85L45.45-13.85Z M71.74-11.43L71.74-11.43Q71.74-14.18 72.77-16.40Q73.81-18.61 75.63-20.19Q77.46-21.76 79.97-22.61Q82.48-23.46 85.41-23.46L85.41-23.46Q86.66-23.46 87.88-23.30Q89.10-23.14 90.22-22.87Q91.35-22.60 92.33-22.22Q93.32-21.84 94.08-21.39L94.08-21.39L94.08-32.40L99.86-32.40L99.86 0L94.08 0L94.08-2.17Q93.32-1.64 92.29-1.17Q91.25-0.70 90.06-0.35Q88.87 0 87.59 0.21Q86.31 0.41 85.06 0.41L85.06 0.41Q82.13 0.41 79.68-0.45Q77.23-1.31 75.47-2.87Q73.71-4.43 72.72-6.61Q71.74-8.79 71.74-11.43ZM77.81-11.43L77.81-11.43Q77.81-10.04 78.37-8.81Q78.93-7.58 79.97-6.65Q81.02-5.72 82.49-5.19Q83.96-4.65 85.80-4.65L85.80-4.65Q86.97-4.65 88.14-4.87Q89.32-5.10 90.40-5.51Q91.48-5.92 92.43-6.50Q93.38-7.09 94.08-7.81L94.08-7.81L94.08-15.80Q93.20-16.50 92.23-16.99Q91.25-17.48 90.23-17.79Q89.22-18.11 88.18-18.25Q87.15-18.40 86.17-18.40L86.17-18.40Q84.18-18.40 82.63-17.86Q81.07-17.32 80.01-16.39Q78.95-15.45 78.38-14.18Q77.81-12.91 77.81-11.43Z M106.93-11.00L106.93-23.07L112.70-23.07L112.70-11.82Q112.70-10.21 113.05-8.90Q113.40-7.58 114.25-6.64Q115.10-5.70 116.51-5.19Q117.93-4.67 120.04-4.67L120.04-4.67Q121.04-4.67 122.06-4.88Q123.09-5.10 124.02-5.48Q124.96-5.86 125.77-6.39Q126.58-6.91 127.17-7.54L127.17-7.54L127.17-23.07L132.95-23.07L132.95 0L127.17 0L127.17-1.97Q125.04-0.70 122.89-0.16Q120.74 0.39 118.81 0.39L118.81 0.39Q115.64 0.39 113.39-0.37Q111.13-1.13 109.70-2.59Q108.26-4.04 107.60-6.16Q106.93-8.28 106.93-11.00L106.93-11.00Z M140.29 0L140.29-23.05L146.07-23.05L146.07-19.73Q147.99-21.15 150.12-22.19Q152.25-23.22 154.36-23.77L154.36-23.77L156.05-18.48Q152.71-18.14 150.19-16.98Q147.66-15.82 146.07-13.71L146.07-13.71L146.07 0L140.29 0Z M159.26-7.27L159.26-7.27Q159.26-8.93 159.98-10.29Q160.70-11.66 162.15-12.65Q163.59-13.63 165.75-14.17Q167.91-14.71 170.78-14.71L170.78-14.71Q172.91-14.71 175.26-14.39Q177.62-14.08 180.12-13.44L180.12-13.44Q180.02-14.53 179.45-15.46Q178.89-16.39 177.88-17.06Q176.88-17.73 175.46-18.11Q174.04-18.48 172.25-18.48L172.25-18.48Q171.27-18.48 170.10-18.36Q168.93-18.24 167.68-18.01Q166.43-17.77 165.21-17.42Q163.98-17.07 162.93-16.58L162.93-16.58L161.17-21.33Q162.48-21.80 163.97-22.19Q165.47-22.58 167.03-22.86Q168.59-23.14 170.16-23.30Q171.72-23.46 173.18-23.46L173.18-23.46Q179.65-23.46 182.79-20.16Q185.94-16.86 185.94-10.04L185.94-10.04L185.94 0L180.16 0L180.16-2.17Q179.26-1.64 178.19-1.17Q177.13-0.70 175.88-0.35Q174.63 0 173.19 0.21Q171.76 0.41 170.16 0.41L170.16 0.41Q167.46 0.41 165.42-0.18Q163.38-0.76 162.01-1.80Q160.64-2.83 159.95-4.23Q159.26-5.63 159.26-7.27ZM165.35-7.46L165.35-7.46Q165.35-6.89 165.64-6.38Q165.94-5.86 166.58-5.46Q167.23-5.06 168.23-4.81Q169.24-4.57 170.66-4.57L170.66-4.57Q172.19-4.57 173.61-4.84Q175.04-5.12 176.27-5.57Q177.50-6.02 178.50-6.60Q179.49-7.19 180.16-7.81L180.16-7.81L180.16-8.83Q178.83-9.20 177.53-9.45Q176.23-9.71 175.05-9.85Q173.87-10 172.82-10.06Q171.78-10.12 171.00-10.12L171.00-10.12Q169.38-10.12 168.30-9.90Q167.23-9.69 166.56-9.33Q165.90-8.96 165.63-8.48Q165.35-7.99 165.35-7.46Z"/></g>
</svg>
</g><g opacity="1" transform="rotate(0 298 169.311)">
<svg width="83.9007" height="83.9008" x="298" y="169.311" version="1.1" preserveAspectRatio="none" viewBox="0 0 83.9007 83.9008">
  <defs><rect x="0" y="0" width="83.9007" height="83.9008" rx="0px" ry="0px" id="id-dbb43f5b-dbc5-4715-af46-f94627b6e9datBXipXk0b1762243267027"></rect></defs><use class="companyNamedbb43f5b-dbc5-4715-af46-f94627b6e9da text-strdbb43f5b-dbc5-4715-af46-f94627b6e9da" style="stroke-width:0;" xlink:href="#id-dbb43f5b-dbc5-4715-af46-f94627b6e9datBXipXk0b1762243267027"></use>
</svg>
</g><g opacity="1" transform="rotate(0 310.9078 190.5213)">
<svg width="58.0851" height="41.4802" x="310.9078" y="190.5213" version="1.1" preserveAspectRatio="none" viewBox="10.155998229980469 21.405132293701172 79.68850708007812 56.90787124633789">
  <g transform="matrix(1 0 0 1 0 0)" class="icon3dbb43f5b-dbc5-4715-af46-f94627b6e9da"><path d="m89.844 29.875v48.438c-6.4688-1.6875-13-2.5312-19.531-2.5312s-13.062 0.84375-19.531 2.5312v-0.8125c9.7188-6.7188 22.594-8.5938 34.625-4.9375 0.21875 0.0625 0.5 0.03125 0.6875-0.125 0.1875-0.125 0.3125-0.375 0.3125-0.625v-43.125c1.1562 0.34375 2.3125 0.75 3.4375 1.1875zm-5 40.906v-46.594c-10.875-4.5-26.406-3.7188-33.031 3.6562-0.375 0.4375-0.71875 0.875-1.0312 1.3438v46.438c9.6875-6.3438 22.25-8.125 34.062-4.8438zm-69.688-46.594v46.594c3.875-1.0625 7.8438-1.5938 11.781-1.5938 7.9688 0 15.781 2.1875 22.281 6.4375v-46.438c-0.3125-0.46875-0.65625-0.90625-1.0312-1.3438-6.625-7.375-22.188-8.1562-33.031-3.6562zm-0.5625 48.375c-0.21875 0.0625-0.5 0.03125-0.6875-0.125-0.1875-0.125-0.3125-0.375-0.3125-0.625v-43.125c-1.1562 0.34375-2.3125 0.75-3.4375 1.1875v48.438c6.4688-1.6875 13-2.5312 19.531-2.5312s13.062 0.84375 19.531 2.5312v-0.8125c-9.7188-6.7188-22.594-8.5938-34.625-4.9375z"></path></g>
</svg>
</g></svg></svg>